<svg xmlns="http://www.w3.org/2000/svg" viewBox="0 0 480 330" width="100%" height="auto" style="max-width:480px; font-family:'Times New Roman', serif; font-size:14px;">
  <defs>
    <marker id="arr5" viewBox="0 0 10 10" refX="8" refY="5" markerWidth="6" markerHeight="6" orient="auto-start-reverse">
      <path d="M 0 1.5 L 8 5 L 0 8.5 z" fill="#1e293b"/>
    </marker>
    <marker id="arr5_red" viewBox="0 0 10 10" refX="8" refY="5" markerWidth="6" markerHeight="6" orient="auto-start-reverse">
      <path d="M 0 1.5 L 8 5 L 0 8.5 z" fill="#dc2626"/>
    </marker>
    <marker id="arr5_blue" viewBox="0 0 10 10" refX="8" refY="5" markerWidth="6" markerHeight="6" orient="auto-start-reverse">
      <path d="M 0 1.5 L 8 5 L 0 8.5 z" fill="#1e40af"/>
    </marker>
  </defs>
  <!-- Axes -->
  <line x1="30" y1="200" x2="450" y2="200" stroke="#1e293b" stroke-width="1.4" marker-end="url(#arr5)"/>
  <line x1="210" y1="310" x2="210" y2="25" stroke="#1e293b" stroke-width="1.4" marker-end="url(#arr5)"/>
  <text x="455" y="204" font-style="italic">x</text>
  <text x="198" y="25" font-style="italic">y</text>
  <text x="196" y="216" font-style="italic">O</text>
  <!-- Oblique Asymptote y = x - 1/3 -->
  <line x1="110" y1="322" x2="420" y2="12" stroke="#ea580c" stroke-width="1.3" stroke-dasharray="6,4"/>
  <text x="340" y="55" font-size="13px" fill="#ea580c">y = x − 1/3</text>
  <!-- Curve y = ³√[(x-1)²(x+1)] -->
  <polyline points="112.5,295.0 113.8,293.2 115.1,291.4 116.4,289.6 117.7,287.7 119.0,285.9 120.3,283.9 121.6,282.0 122.9,280.0 124.2,277.9 125.5,275.8 126.8,273.7 128.1,271.4 129.4,269.2 130.7,266.8 132.0,264.3 133.3,261.7 134.6,259.0 135.9,256.0 137.2,252.9 138.5,249.5 139.8,245.6 141.1,241.2 142.4,235.8 143.7,228.2 145.0,200.0 146.3,172.2 147.6,165.2 148.9,160.4 150.2,156.7 151.5,153.7 152.8,151.2 154.1,149.0 155.4,147.0 156.7,145.3 158.0,143.8 159.3,142.4 160.6,141.1 161.9,140.0 163.2,139.0 164.5,138.0 165.8,137.2 167.1,136.4 168.4,135.7 169.7,135.1 171.0,134.5 172.3,134.0 173.6,133.5 174.9,133.1 176.2,132.7 177.5,132.4 178.8,132.1 180.1,131.9 181.4,131.7 182.7,131.5 184.0,131.4 185.3,131.3 186.6,131.2 187.9,131.2 189.2,131.2 190.5,131.3 191.8,131.3 193.1,131.4 194.4,131.5 195.7,131.7 197.0,131.9 198.3,132.1 199.6,132.3 200.9,132.5 202.2,132.8 203.5,133.1 204.8,133.5 206.1,133.8 207.4,134.2 208.7,134.6 210.0,135.0 211.3,135.4 212.6,135.9 213.9,136.4 215.2,136.9 216.5,137.5 217.8,138.0 219.1,138.6 220.4,139.2 221.7,139.8 223.0,140.5 224.3,141.1 225.6,141.8 226.9,142.6 228.2,143.3 229.5,144.1 230.8,144.9 232.1,145.7 233.4,146.5 234.7,147.4 236.0,148.3 237.3,149.2 238.6,150.1 239.9,151.1 241.2,152.1 242.5,153.1 243.8,154.2 245.1,155.3 246.4,156.4 247.7,157.5 249.0,158.7 250.3,159.9 251.6,161.2 252.9,162.5 254.2,163.8 255.5,165.2 256.8,166.7 258.1,168.2 259.4,169.7 260.7,171.3 262.0,173.0 263.3,174.7 264.6,176.5 265.9,178.4 267.2,180.5 268.5,182.7 269.8,185.0 271.1,187.6 272.4,190.5 273.7,194.0 275.0,200.0 276.3,193.9 277.6,190.4 278.9,187.3 280.2,184.6 281.5,182.1 282.8,179.7 284.1,177.4 285.4,175.2 286.7,173.1 288.0,171.1 289.3,169.1 290.6,167.2 291.9,165.3 293.2,163.4 294.5,161.5 295.8,159.7 297.1,158.0 298.4,156.2 299.7,154.5 301.0,152.8 302.3,151.1 303.6,149.4 304.9,147.7 306.2,146.1 307.5,144.4 308.8,142.8 310.1,141.2 311.4,139.6 312.7,138.0 314.0,136.4 315.3,134.8 316.6,133.3 317.9,131.7 319.2,130.2 320.5,128.6 321.8,127.1 323.1,125.6 324.4,124.1 325.7,122.6 327.0,121.0 328.3,119.5 329.6,118.1 330.9,116.6 332.2,115.1 333.5,113.6 334.8,112.1 336.1,110.6 337.4,109.2 338.7,107.7 340.0,106.3 341.3,104.8 342.6,103.3 343.9,101.9 345.2,100.4 346.5,99.0 347.8,97.6 349.1,96.1 350.4,94.7 351.7,93.3 353.0,91.8 354.3,90.4 355.6,89.0 356.9,87.6 358.2,86.1 359.5,84.7 360.8,83.3 362.1,81.9 363.4,80.5 364.7,79.1 366.0,77.7 367.3,76.3 368.6,74.9 369.9,73.5 371.2,72.1 372.5,70.7 373.8,69.3 375.1,67.9 376.4,66.5 377.7,65.1 379.0,63.7 380.3,62.3 381.6,60.9 382.9,59.6 384.2,58.2 385.5,56.8 386.8,55.4 388.1,54.0 389.4,52.7 390.7,51.3 392.0,49.9 393.3,48.5 394.6,47.2 395.9,45.8 397.2,44.4 398.5,43.0 399.8,41.7 401.1,40.3 402.4,38.9 403.7,37.6 405.0,36.2 406.3,34.8 407.6,33.5 408.9,32.1 410.2,30.8 411.5,29.4 412.8,28.0 414.1,26.7 415.4,25.3 416.7,24.0 418.0,22.6 419.3,21.2 420.6,19.9 421.9,18.5 423.2,17.2" fill="none" stroke="#1e40af" stroke-width="2.2" stroke-linecap="round"/>
  <!-- Inflection at (-1, 0) -->
  <line x1="145" y1="165" x2="145" y2="235" stroke="#dc2626" stroke-width="1.6"/>
  <circle cx="145" cy="200" r="3.5" fill="#dc2626"/>
  <text x="139" y="216" text-anchor="end">−1</text>
  <text x="137" y="190" font-size="12px" fill="#dc2626" text-anchor="end">拐点 (−1, 0)</text>
  <text x="137" y="205" font-size="11px" fill="#dc2626" text-anchor="end">(垂直切线)</text>
  <!-- Local Max (-1/3, ³√32 / 3) -->
  <line x1="188.33333333333334" y1="200" x2="188.33333333333334" y2="131.23" stroke="#64748b" stroke-width="1" stroke-dasharray="3,3"/>
  <circle cx="188.33333333333334" cy="131.23" r="3.5" fill="#dc2626"/>
  <text x="188.33333333333334" y="123.22999999999999" text-anchor="middle" font-size="12px" fill="#dc2626">极大值 (−1/3, ³√32/3)</text>
  <!-- Cusp at (1, 0) -->
  <circle cx="275" cy="200" r="3.5" fill="#dc2626"/>
  <text x="275" y="216" text-anchor="middle">1</text>
  <text x="285" y="192" font-size="12px" fill="#dc2626">极小值/尖点 (1, 0)</text>
  <circle cx="210" cy="135" r="2.5" fill="#1e40af"/>
  <text x="218" y="139" font-size="12px">1</text>
  <text x="50" y="90" font-style="italic" font-weight="bold" fill="#1e40af">y = ³√[(x−1)²(x+1)]</text>
</svg>
